<mxfile host="Electron" modified="2023-07-03T10:08:13.062Z" agent="Mozilla/5.0 (Windows NT 10.0; Win64; x64) AppleWebKit/537.36 (KHTML, like Gecko) draw.io/21.2.8 Chrome/112.0.5615.165 Electron/24.2.0 Safari/537.36" etag="q-U4w0y8T4pC7JQ8Qyjj" version="21.2.8" type="device">
  <diagram name="Page-1" id="zltCM8ToJeag0dl8PPA4">
    <mxGraphModel dx="1400" dy="892" grid="1" gridSize="10" guides="1" tooltips="1" connect="1" arrows="1" fold="1" page="1" pageScale="1" pageWidth="850" pageHeight="1100" math="0" shadow="0">
      <root>
        <mxCell id="0" />
        <mxCell id="1" parent="0" />
        <mxCell id="g-jBuLfuLAFc8RCKyHGd-1" value="" style="rounded=0;whiteSpace=wrap;html=1;fillColor=#fff2cc;strokeColor=#d6b656;" vertex="1" parent="1">
          <mxGeometry x="331" y="200" width="80" height="40" as="geometry" />
        </mxCell>
        <mxCell id="g-jBuLfuLAFc8RCKyHGd-2" value="" style="ellipse;whiteSpace=wrap;html=1;fillColor=#e1d5e7;strokeColor=#9673a6;" vertex="1" parent="1">
          <mxGeometry x="261" y="110" width="70" height="40" as="geometry" />
        </mxCell>
        <mxCell id="g-jBuLfuLAFc8RCKyHGd-3" value="" style="ellipse;whiteSpace=wrap;html=1;fillColor=#e1d5e7;strokeColor=#9673a6;" vertex="1" parent="1">
          <mxGeometry x="311" y="50" width="70" height="40" as="geometry" />
        </mxCell>
        <mxCell id="g-jBuLfuLAFc8RCKyHGd-4" value="" style="ellipse;whiteSpace=wrap;html=1;fillColor=#e1d5e7;strokeColor=#9673a6;" vertex="1" parent="1">
          <mxGeometry x="401" y="60" width="70" height="40" as="geometry" />
        </mxCell>
        <mxCell id="g-jBuLfuLAFc8RCKyHGd-5" value="" style="ellipse;whiteSpace=wrap;html=1;fillColor=#e1d5e7;strokeColor=#9673a6;" vertex="1" parent="1">
          <mxGeometry x="431" y="120" width="70" height="40" as="geometry" />
        </mxCell>
        <mxCell id="g-jBuLfuLAFc8RCKyHGd-6" value="" style="endArrow=none;html=1;rounded=0;exitX=0.5;exitY=0;exitDx=0;exitDy=0;entryX=1;entryY=1;entryDx=0;entryDy=0;" edge="1" parent="1" source="g-jBuLfuLAFc8RCKyHGd-1" target="g-jBuLfuLAFc8RCKyHGd-2">
          <mxGeometry width="50" height="50" relative="1" as="geometry">
            <mxPoint x="531" y="280" as="sourcePoint" />
            <mxPoint x="581" y="230" as="targetPoint" />
          </mxGeometry>
        </mxCell>
        <mxCell id="g-jBuLfuLAFc8RCKyHGd-7" value="" style="endArrow=none;html=1;rounded=0;exitX=0.5;exitY=0;exitDx=0;exitDy=0;entryX=0.5;entryY=1;entryDx=0;entryDy=0;" edge="1" parent="1" source="g-jBuLfuLAFc8RCKyHGd-1" target="g-jBuLfuLAFc8RCKyHGd-3">
          <mxGeometry width="50" height="50" relative="1" as="geometry">
            <mxPoint x="381" y="210" as="sourcePoint" />
            <mxPoint x="306" y="160" as="targetPoint" />
          </mxGeometry>
        </mxCell>
        <mxCell id="g-jBuLfuLAFc8RCKyHGd-8" value="" style="endArrow=none;html=1;rounded=0;exitX=0.5;exitY=0;exitDx=0;exitDy=0;entryX=0;entryY=1;entryDx=0;entryDy=0;" edge="1" parent="1" source="g-jBuLfuLAFc8RCKyHGd-1" target="g-jBuLfuLAFc8RCKyHGd-4">
          <mxGeometry width="50" height="50" relative="1" as="geometry">
            <mxPoint x="391" y="220" as="sourcePoint" />
            <mxPoint x="316" y="170" as="targetPoint" />
          </mxGeometry>
        </mxCell>
        <mxCell id="g-jBuLfuLAFc8RCKyHGd-9" value="" style="endArrow=none;html=1;rounded=0;exitX=0.5;exitY=0;exitDx=0;exitDy=0;entryX=0;entryY=0.5;entryDx=0;entryDy=0;" edge="1" parent="1" source="g-jBuLfuLAFc8RCKyHGd-1" target="g-jBuLfuLAFc8RCKyHGd-5">
          <mxGeometry width="50" height="50" relative="1" as="geometry">
            <mxPoint x="401" y="230" as="sourcePoint" />
            <mxPoint x="326" y="180" as="targetPoint" />
          </mxGeometry>
        </mxCell>
        <mxCell id="g-jBuLfuLAFc8RCKyHGd-10" value="" style="endArrow=none;html=1;rounded=0;exitX=0;exitY=0.5;exitDx=0;exitDy=0;entryX=0.5;entryY=0;entryDx=0;entryDy=0;" edge="1" parent="1" source="g-jBuLfuLAFc8RCKyHGd-1" target="g-jBuLfuLAFc8RCKyHGd-11">
          <mxGeometry width="50" height="50" relative="1" as="geometry">
            <mxPoint x="531" y="280" as="sourcePoint" />
            <mxPoint x="231" y="320" as="targetPoint" />
            <Array as="points">
              <mxPoint x="226" y="220" />
            </Array>
          </mxGeometry>
        </mxCell>
        <mxCell id="g-jBuLfuLAFc8RCKyHGd-11" value="" style="rhombus;whiteSpace=wrap;html=1;fillColor=#d5e8d4;strokeColor=#82b366;" vertex="1" parent="1">
          <mxGeometry x="191" y="320" width="70" height="60" as="geometry" />
        </mxCell>
        <mxCell id="g-jBuLfuLAFc8RCKyHGd-12" value="" style="endArrow=none;html=1;rounded=0;exitX=0.5;exitY=1;exitDx=0;exitDy=0;" edge="1" parent="1" source="g-jBuLfuLAFc8RCKyHGd-11">
          <mxGeometry width="50" height="50" relative="1" as="geometry">
            <mxPoint x="460" y="300" as="sourcePoint" />
            <mxPoint x="226" y="420" as="targetPoint" />
          </mxGeometry>
        </mxCell>
        <mxCell id="g-jBuLfuLAFc8RCKyHGd-13" value="" style="rounded=0;whiteSpace=wrap;html=1;fillColor=#fff2cc;strokeColor=#d6b656;" vertex="1" parent="1">
          <mxGeometry x="186" y="410" width="80" height="40" as="geometry" />
        </mxCell>
        <mxCell id="g-jBuLfuLAFc8RCKyHGd-14" value="" style="endArrow=none;html=1;rounded=0;exitX=0;exitY=0.5;exitDx=0;exitDy=0;entryX=1;entryY=0.5;entryDx=0;entryDy=0;" edge="1" parent="1" source="g-jBuLfuLAFc8RCKyHGd-13" target="g-jBuLfuLAFc8RCKyHGd-15">
          <mxGeometry width="50" height="50" relative="1" as="geometry">
            <mxPoint x="420" y="330" as="sourcePoint" />
            <mxPoint x="470" y="280" as="targetPoint" />
          </mxGeometry>
        </mxCell>
        <mxCell id="g-jBuLfuLAFc8RCKyHGd-15" value="" style="ellipse;whiteSpace=wrap;html=1;fillColor=#e1d5e7;strokeColor=#9673a6;" vertex="1" parent="1">
          <mxGeometry x="60" y="400" width="70" height="40" as="geometry" />
        </mxCell>
        <mxCell id="g-jBuLfuLAFc8RCKyHGd-16" value="" style="ellipse;whiteSpace=wrap;html=1;fillColor=#e1d5e7;strokeColor=#9673a6;" vertex="1" parent="1">
          <mxGeometry x="60" y="460" width="70" height="40" as="geometry" />
        </mxCell>
        <mxCell id="g-jBuLfuLAFc8RCKyHGd-17" value="" style="endArrow=none;html=1;rounded=0;entryX=1;entryY=0.5;entryDx=0;entryDy=0;exitX=0;exitY=0.5;exitDx=0;exitDy=0;" edge="1" parent="1" source="g-jBuLfuLAFc8RCKyHGd-13" target="g-jBuLfuLAFc8RCKyHGd-16">
          <mxGeometry width="50" height="50" relative="1" as="geometry">
            <mxPoint x="180" y="430" as="sourcePoint" />
            <mxPoint x="140" y="430" as="targetPoint" />
          </mxGeometry>
        </mxCell>
        <mxCell id="g-jBuLfuLAFc8RCKyHGd-18" value="" style="endArrow=none;html=1;rounded=0;exitX=0.5;exitY=1;exitDx=0;exitDy=0;entryX=0.5;entryY=0;entryDx=0;entryDy=0;" edge="1" parent="1" source="g-jBuLfuLAFc8RCKyHGd-1" target="g-jBuLfuLAFc8RCKyHGd-19">
          <mxGeometry width="50" height="50" relative="1" as="geometry">
            <mxPoint x="420" y="330" as="sourcePoint" />
            <mxPoint x="450" y="360" as="targetPoint" />
            <Array as="points">
              <mxPoint x="371" y="280" />
              <mxPoint x="446" y="280" />
            </Array>
          </mxGeometry>
        </mxCell>
        <mxCell id="g-jBuLfuLAFc8RCKyHGd-19" value="" style="rhombus;whiteSpace=wrap;html=1;fillColor=#d5e8d4;strokeColor=#82b366;" vertex="1" parent="1">
          <mxGeometry x="411" y="360" width="70" height="60" as="geometry" />
        </mxCell>
        <mxCell id="g-jBuLfuLAFc8RCKyHGd-20" value="" style="endArrow=none;html=1;rounded=0;entryX=0.5;entryY=1;entryDx=0;entryDy=0;" edge="1" parent="1" target="g-jBuLfuLAFc8RCKyHGd-19">
          <mxGeometry width="50" height="50" relative="1" as="geometry">
            <mxPoint x="446" y="470" as="sourcePoint" />
            <mxPoint x="356" y="100" as="targetPoint" />
          </mxGeometry>
        </mxCell>
        <mxCell id="g-jBuLfuLAFc8RCKyHGd-22" value="" style="rounded=0;whiteSpace=wrap;html=1;fillColor=#fff2cc;strokeColor=#d6b656;" vertex="1" parent="1">
          <mxGeometry x="406" y="470" width="80" height="40" as="geometry" />
        </mxCell>
        <mxCell id="g-jBuLfuLAFc8RCKyHGd-23" value="" style="ellipse;whiteSpace=wrap;html=1;fillColor=#e1d5e7;strokeColor=#9673a6;" vertex="1" parent="1">
          <mxGeometry x="311" y="550" width="70" height="40" as="geometry" />
        </mxCell>
        <mxCell id="g-jBuLfuLAFc8RCKyHGd-24" value="" style="ellipse;whiteSpace=wrap;html=1;fillColor=#e1d5e7;strokeColor=#9673a6;" vertex="1" parent="1">
          <mxGeometry x="390" y="610" width="70" height="40" as="geometry" />
        </mxCell>
        <mxCell id="g-jBuLfuLAFc8RCKyHGd-25" value="" style="ellipse;whiteSpace=wrap;html=1;fillColor=#e1d5e7;strokeColor=#9673a6;" vertex="1" parent="1">
          <mxGeometry x="460" y="550" width="70" height="40" as="geometry" />
        </mxCell>
        <mxCell id="g-jBuLfuLAFc8RCKyHGd-27" value="" style="endArrow=none;html=1;rounded=0;entryX=0.5;entryY=1;entryDx=0;entryDy=0;exitX=1;exitY=0;exitDx=0;exitDy=0;" edge="1" parent="1" source="g-jBuLfuLAFc8RCKyHGd-23" target="g-jBuLfuLAFc8RCKyHGd-22">
          <mxGeometry width="50" height="50" relative="1" as="geometry">
            <mxPoint x="456" y="480" as="sourcePoint" />
            <mxPoint x="456" y="430" as="targetPoint" />
          </mxGeometry>
        </mxCell>
        <mxCell id="g-jBuLfuLAFc8RCKyHGd-28" value="" style="endArrow=none;html=1;rounded=0;exitX=0.5;exitY=1;exitDx=0;exitDy=0;" edge="1" parent="1" source="g-jBuLfuLAFc8RCKyHGd-22" target="g-jBuLfuLAFc8RCKyHGd-24">
          <mxGeometry width="50" height="50" relative="1" as="geometry">
            <mxPoint x="466" y="490" as="sourcePoint" />
            <mxPoint x="466" y="440" as="targetPoint" />
          </mxGeometry>
        </mxCell>
        <mxCell id="g-jBuLfuLAFc8RCKyHGd-29" value="" style="endArrow=none;html=1;rounded=0;exitX=0.5;exitY=0;exitDx=0;exitDy=0;entryX=0.5;entryY=1;entryDx=0;entryDy=0;" edge="1" parent="1" source="g-jBuLfuLAFc8RCKyHGd-25" target="g-jBuLfuLAFc8RCKyHGd-22">
          <mxGeometry width="50" height="50" relative="1" as="geometry">
            <mxPoint x="476" y="500" as="sourcePoint" />
            <mxPoint x="450" y="520" as="targetPoint" />
          </mxGeometry>
        </mxCell>
        <mxCell id="g-jBuLfuLAFc8RCKyHGd-30" value="" style="endArrow=none;html=1;rounded=0;entryX=1;entryY=0.5;entryDx=0;entryDy=0;exitX=0.5;exitY=0;exitDx=0;exitDy=0;" edge="1" parent="1" source="g-jBuLfuLAFc8RCKyHGd-33" target="g-jBuLfuLAFc8RCKyHGd-1">
          <mxGeometry width="50" height="50" relative="1" as="geometry">
            <mxPoint x="680" y="280" as="sourcePoint" />
            <mxPoint x="456" y="430" as="targetPoint" />
            <Array as="points">
              <mxPoint x="675" y="220" />
            </Array>
          </mxGeometry>
        </mxCell>
        <mxCell id="g-jBuLfuLAFc8RCKyHGd-33" value="" style="rhombus;whiteSpace=wrap;html=1;fillColor=#d5e8d4;strokeColor=#82b366;" vertex="1" parent="1">
          <mxGeometry x="640" y="357" width="70" height="60" as="geometry" />
        </mxCell>
        <mxCell id="g-jBuLfuLAFc8RCKyHGd-34" value="" style="endArrow=none;html=1;rounded=0;entryX=0.5;entryY=1;entryDx=0;entryDy=0;" edge="1" parent="1" target="g-jBuLfuLAFc8RCKyHGd-33">
          <mxGeometry width="50" height="50" relative="1" as="geometry">
            <mxPoint x="675" y="467" as="sourcePoint" />
            <mxPoint x="400" y="477" as="targetPoint" />
          </mxGeometry>
        </mxCell>
        <mxCell id="g-jBuLfuLAFc8RCKyHGd-35" value="" style="ellipse;whiteSpace=wrap;html=1;fillColor=#e1d5e7;strokeColor=#9673a6;" vertex="1" parent="1">
          <mxGeometry x="640" y="467" width="70" height="40" as="geometry" />
        </mxCell>
        <mxCell id="g-jBuLfuLAFc8RCKyHGd-36" value="User" style="text;html=1;strokeColor=none;fillColor=none;align=center;verticalAlign=middle;whiteSpace=wrap;rounded=0;" vertex="1" parent="1">
          <mxGeometry x="341" y="205" width="60" height="30" as="geometry" />
        </mxCell>
        <mxCell id="g-jBuLfuLAFc8RCKyHGd-37" value="Name" style="text;html=1;strokeColor=none;fillColor=none;align=center;verticalAlign=middle;whiteSpace=wrap;rounded=0;" vertex="1" parent="1">
          <mxGeometry x="266" y="115" width="60" height="30" as="geometry" />
        </mxCell>
        <mxCell id="g-jBuLfuLAFc8RCKyHGd-38" value="Phone" style="text;html=1;strokeColor=none;fillColor=none;align=center;verticalAlign=middle;whiteSpace=wrap;rounded=0;" vertex="1" parent="1">
          <mxGeometry x="316" y="55" width="60" height="30" as="geometry" />
        </mxCell>
        <mxCell id="g-jBuLfuLAFc8RCKyHGd-39" value="E-mail" style="text;html=1;strokeColor=none;fillColor=none;align=center;verticalAlign=middle;whiteSpace=wrap;rounded=0;" vertex="1" parent="1">
          <mxGeometry x="406" y="65" width="60" height="30" as="geometry" />
        </mxCell>
        <mxCell id="g-jBuLfuLAFc8RCKyHGd-40" value="Password" style="text;html=1;strokeColor=none;fillColor=none;align=center;verticalAlign=middle;whiteSpace=wrap;rounded=0;" vertex="1" parent="1">
          <mxGeometry x="436" y="125" width="60" height="30" as="geometry" />
        </mxCell>
        <mxCell id="g-jBuLfuLAFc8RCKyHGd-41" value="Login" style="text;html=1;strokeColor=none;fillColor=none;align=center;verticalAlign=middle;whiteSpace=wrap;rounded=0;" vertex="1" parent="1">
          <mxGeometry x="196" y="335" width="60" height="30" as="geometry" />
        </mxCell>
        <mxCell id="g-jBuLfuLAFc8RCKyHGd-42" value="Home" style="text;html=1;strokeColor=none;fillColor=none;align=center;verticalAlign=middle;whiteSpace=wrap;rounded=0;" vertex="1" parent="1">
          <mxGeometry x="416" y="375" width="60" height="30" as="geometry" />
        </mxCell>
        <mxCell id="g-jBuLfuLAFc8RCKyHGd-43" value="Profile" style="text;html=1;strokeColor=none;fillColor=none;align=center;verticalAlign=middle;whiteSpace=wrap;rounded=0;" vertex="1" parent="1">
          <mxGeometry x="645" y="372" width="60" height="30" as="geometry" />
        </mxCell>
        <mxCell id="g-jBuLfuLAFc8RCKyHGd-44" value="Logout" style="text;html=1;strokeColor=none;fillColor=none;align=center;verticalAlign=middle;whiteSpace=wrap;rounded=0;" vertex="1" parent="1">
          <mxGeometry x="645" y="472" width="60" height="30" as="geometry" />
        </mxCell>
        <mxCell id="g-jBuLfuLAFc8RCKyHGd-45" value="Levels" style="text;html=1;strokeColor=none;fillColor=none;align=center;verticalAlign=middle;whiteSpace=wrap;rounded=0;" vertex="1" parent="1">
          <mxGeometry x="416" y="475" width="60" height="30" as="geometry" />
        </mxCell>
        <mxCell id="g-jBuLfuLAFc8RCKyHGd-46" value="Applicant" style="text;html=1;strokeColor=none;fillColor=none;align=center;verticalAlign=middle;whiteSpace=wrap;rounded=0;" vertex="1" parent="1">
          <mxGeometry x="196" y="415" width="60" height="30" as="geometry" />
        </mxCell>
        <mxCell id="g-jBuLfuLAFc8RCKyHGd-47" value="E-mail" style="text;html=1;strokeColor=none;fillColor=none;align=center;verticalAlign=middle;whiteSpace=wrap;rounded=0;" vertex="1" parent="1">
          <mxGeometry x="65" y="405" width="60" height="30" as="geometry" />
        </mxCell>
        <mxCell id="g-jBuLfuLAFc8RCKyHGd-48" value="Password" style="text;html=1;strokeColor=none;fillColor=none;align=center;verticalAlign=middle;whiteSpace=wrap;rounded=0;" vertex="1" parent="1">
          <mxGeometry x="65" y="465" width="60" height="30" as="geometry" />
        </mxCell>
        <mxCell id="g-jBuLfuLAFc8RCKyHGd-49" value="&lt;font style=&quot;font-size: 10px;&quot;&gt;Tempersture&lt;/font&gt;" style="text;html=1;strokeColor=none;fillColor=none;align=center;verticalAlign=middle;whiteSpace=wrap;rounded=0;" vertex="1" parent="1">
          <mxGeometry x="316" y="555" width="60" height="30" as="geometry" />
        </mxCell>
        <mxCell id="g-jBuLfuLAFc8RCKyHGd-50" value="Humidity" style="text;html=1;strokeColor=none;fillColor=none;align=center;verticalAlign=middle;whiteSpace=wrap;rounded=0;" vertex="1" parent="1">
          <mxGeometry x="395" y="615" width="60" height="30" as="geometry" />
        </mxCell>
        <mxCell id="g-jBuLfuLAFc8RCKyHGd-51" value="Oxygen" style="text;html=1;strokeColor=none;fillColor=none;align=center;verticalAlign=middle;whiteSpace=wrap;rounded=0;" vertex="1" parent="1">
          <mxGeometry x="465" y="555" width="60" height="30" as="geometry" />
        </mxCell>
      </root>
    </mxGraphModel>
  </diagram>
</mxfile>
